# xmcd
#
# Track frame offsets:
#	150
#	11832
#	26379
#	40087
#	52775
#	76683
#	93098
#	107622
#	127368
#	146193
#	164461
#	186359
#	208030
#	227131
#	238399
#	258842
#
# Disc length: 3687 seconds
#
# Revision: 1
# Processed by: cddbd v1.5.2PL0 Copyright (c) Steve Scherf et al.
# Submitted via: audiograbber 1.83.01
#
DISCID=d60e6510
DTITLE=Hank H‰berle JR. - Du, I gang jetzt fei
DYEAR=2007
DGENRE=Country
TTITLE0=I mog nemme
TTITLE1=Gollwahs ond Wiski ond fette Weiber
TTITLE2=Mei Zwoizemmerwohnklo
TTITLE3=Drecks‰ck, scharfe Weiber ond a kalts Woizabier
TTITLE4=Domm gloffa
TTITLE5=Wenn's em Hemmel net so isch wia em L‰ndle
TTITLE6=Irgendwie isch jeder ganz alloi
TTITLE7=Jedesmol dr gleiche Scheiﬂ
TTITLE8=Schugget mi net emmer bei mei'm Bier
TTITLE9=Sonscht ben i gsond
TTITLE10=Em Hemmel schw‰tzt jeder schw‰bisch
TTITLE11=I ben so ainsam
TTITLE12=Selbst‰ndiger Arbeitsloser
TTITLE13=Kipp oin hender d' Benda
TTITLE14=Wach i morga nemme uff
TTITLE15=Du, i gang jetzt fei
EXTD=
EXTT0=
EXTT1=
EXTT2=
EXTT3=
EXTT4=
EXTT5=
EXTT6=
EXTT7=
EXTT8=
EXTT9=
EXTT10=
EXTT11=
EXTT12=
EXTT13=
EXTT14=
EXTT15=
PLAYORDER=
